<svg width="13" height="13" viewBox="0 0 13 13" fill="none" xmlns="http://www.w3.org/2000/svg">
<path d="M12.1123 2.02846C12.0306 1.94774 11.9325 1.88362 11.8238 1.84001C11.7151 1.79639 11.5981 1.7742 11.4801 1.77478H10.5743V1.13346C10.5764 0.992806 10.548 0.853244 10.4909 0.72338C10.4339 0.593516 10.3493 0.476105 10.2424 0.37839C10.1391 0.277341 10.0151 0.197389 9.87797 0.143463C9.74082 0.0895363 9.59346 0.0627784 9.44498 0.0648383H8.99371C8.84516 0.0628751 8.69777 0.0897506 8.56062 0.143807C8.42347 0.197863 8.29947 0.277954 8.19627 0.379138C8.08938 0.476827 8.00477 0.594233 7.94768 0.724103C7.89058 0.853973 7.86222 0.993548 7.86434 1.13421V1.77553H5.15434V1.13346C5.15641 0.992806 5.12803 0.853244 5.07094 0.72338C5.01385 0.593516 4.92926 0.476105 4.8224 0.37839C4.71923 0.277433 4.59533 0.197535 4.45832 0.143612C4.32132 0.0896887 4.17411 0.062881 4.02576 0.0648383H3.57449C3.42595 0.0628751 3.27855 0.0897506 3.1414 0.143807C3.00425 0.197863 2.88025 0.277954 2.77705 0.379138C2.67019 0.476854 2.58561 0.594265 2.52852 0.724128C2.47143 0.853992 2.44305 0.993554 2.44512 1.13421V1.77553H1.54179C1.42373 1.77495 1.30679 1.79714 1.19809 1.84076C1.08939 1.88437 0.991204 1.94849 0.909531 2.02921C0.824283 2.10654 0.756563 2.19951 0.710501 2.30244C0.664439 2.40536 0.641 2.51609 0.641612 2.62788V11.1821C0.64466 11.4076 0.740357 11.6231 0.908406 11.7829C1.07646 11.9427 1.30364 12.0343 1.54179 12.0382H11.4769C11.7155 12.0351 11.9433 11.944 12.112 11.7842C12.2807 11.6245 12.377 11.4087 12.3802 11.1828V2.63012C12.3813 2.51783 12.358 2.40653 12.312 2.30306C12.2659 2.19959 12.1979 2.10614 12.1123 2.02846ZM3.57686 11.1821H1.54179V9.2581H3.5737L3.57686 11.1821ZM3.57686 8.83006H1.54179V6.69207H3.5737L3.57686 8.83006ZM3.57686 6.26403H1.54179V4.34006H3.5737L3.57686 6.26403ZM3.41879 3.20709C3.39741 3.1878 3.38042 3.16457 3.36887 3.13883C3.35731 3.11309 3.35144 3.08539 3.35162 3.05742V1.13346C3.35244 1.07694 3.37651 1.02295 3.41872 0.982976C3.46094 0.943006 3.51796 0.920208 3.57765 0.919434H4.02576C4.08545 0.920208 4.14247 0.943006 4.18468 0.982976C4.2269 1.02295 4.25097 1.07694 4.25179 1.13346V3.05817C4.25097 3.11469 4.2269 3.16868 4.18468 3.20865C4.14247 3.24862 4.08545 3.27142 4.02576 3.27219H3.57449C3.54464 3.27242 3.51506 3.26682 3.48759 3.25575C3.46012 3.24468 3.43536 3.22837 3.41484 3.20783L3.41879 3.20709ZM6.28686 11.1813H4.02576V9.2581H6.2837L6.28686 11.1813ZM6.28686 8.82931H4.02576V6.69207H6.2837L6.28686 8.82931ZM6.28686 6.26328H4.02576V4.34006H6.2837L6.28686 6.26328ZM8.99687 11.1806H6.73498V9.2581H8.99292L8.99687 11.1806ZM8.99687 8.82856H6.73498V6.69207H8.99292L8.99687 8.82856ZM8.99687 6.26253H6.73498V4.34006H8.99292L8.99687 6.26253ZM8.8388 3.20559C8.81703 3.18686 8.79949 3.16413 8.78727 3.13879C8.77504 3.11345 8.76838 3.08602 8.76768 3.05817V1.13346C8.76829 1.07688 8.7923 1.02278 8.83456 0.982766C8.87682 0.942755 8.93395 0.920018 8.99371 0.919434H9.44498C9.50473 0.920018 9.56187 0.942755 9.60412 0.982766C9.64638 1.02278 9.67039 1.07688 9.67101 1.13346V3.05817C9.67039 3.11475 9.64638 3.16885 9.60412 3.20886C9.56187 3.24887 9.50473 3.27161 9.44498 3.27219H8.99371C8.96385 3.27247 8.93425 3.26689 8.90678 3.25582C8.87931 3.24474 8.85455 3.2284 8.83406 3.20783L8.8388 3.20559ZM11.4816 11.1798H9.44498V9.2581H11.4769L11.4816 11.1798ZM11.4816 8.82781H9.44498V6.69207H11.4769L11.4816 8.82781ZM11.4816 6.26178H9.44498V4.34006H11.4769L11.4816 6.26178Z" fill="#333333"/>
</svg>
