<svg width="13" height="13" viewBox="0 0 13 13" fill="none" xmlns="http://www.w3.org/2000/svg">
<path d="M12.4517 2.02846C12.37 1.94774 12.2718 1.88362 12.1631 1.84001C12.0544 1.79639 11.9375 1.7742 11.8194 1.77478H10.9137V1.13346C10.9158 0.992806 10.8874 0.853244 10.8303 0.72338C10.7732 0.593516 10.6886 0.476105 10.5818 0.37839C10.4785 0.277341 10.3545 0.197389 10.2173 0.143463C10.0802 0.0895363 9.93282 0.0627784 9.78433 0.0648383H9.33306C9.18452 0.0628751 9.03713 0.0897506 8.89998 0.143807C8.76283 0.197863 8.63883 0.277954 8.53563 0.379138C8.42873 0.476827 8.34412 0.594233 8.28703 0.724103C8.22994 0.853973 8.20157 0.993548 8.20369 1.13421V1.77553H5.49369V1.13346C5.49577 0.992806 5.46738 0.853244 5.41029 0.72338C5.3532 0.593516 5.26862 0.476105 5.16176 0.37839C5.05858 0.277433 4.93468 0.197535 4.79768 0.143612C4.66068 0.0896887 4.51347 0.062881 4.36512 0.0648383H3.91384C3.7653 0.0628751 3.61791 0.0897506 3.48076 0.143807C3.34361 0.197863 3.21961 0.277954 3.11641 0.379138C3.00955 0.476854 2.92497 0.594265 2.86788 0.724128C2.81079 0.853992 2.7824 0.993554 2.78448 1.13421V1.77553H1.88114C1.76308 1.77495 1.64614 1.79714 1.53744 1.84076C1.42874 1.88437 1.33056 1.94849 1.24889 2.02921C1.16364 2.10654 1.09592 2.19951 1.04986 2.30244C1.00379 2.40536 0.980355 2.51609 0.980968 2.62788V11.1821C0.984015 11.4076 1.07971 11.6231 1.24776 11.7829C1.41581 11.9427 1.643 12.0343 1.88114 12.0382H11.8162C12.0548 12.0351 12.2827 11.944 12.4514 11.7842C12.6201 11.6245 12.7163 11.4087 12.7196 11.1828V2.63012C12.7206 2.51783 12.6974 2.40653 12.6513 2.30306C12.6052 2.19959 12.5373 2.10614 12.4517 2.02846ZM3.91621 11.1821H1.88114V9.2581H3.91305L3.91621 11.1821ZM3.91621 8.83006H1.88114V6.69207H3.91305L3.91621 8.83006ZM3.91621 6.26403H1.88114V4.34006H3.91305L3.91621 6.26403ZM3.75815 3.20709C3.73676 3.1878 3.71977 3.16457 3.70822 3.13883C3.69667 3.11309 3.6908 3.08539 3.69097 3.05742V1.13346C3.69179 1.07694 3.71587 1.02295 3.75808 0.982976C3.80029 0.943006 3.85731 0.920208 3.917 0.919434H4.36512C4.42481 0.920208 4.48183 0.943006 4.52404 0.982976C4.56625 1.02295 4.59033 1.07694 4.59115 1.13346V3.05817C4.59033 3.11469 4.56625 3.16868 4.52404 3.20865C4.48183 3.24862 4.42481 3.27142 4.36512 3.27219H3.91384C3.88399 3.27242 3.85441 3.26682 3.82694 3.25575C3.79948 3.24468 3.77472 3.22837 3.7542 3.20783L3.75815 3.20709ZM6.62622 11.1813H4.36512V9.2581H6.62306L6.62622 11.1813ZM6.62622 8.82931H4.36512V6.69207H6.62306L6.62622 8.82931ZM6.62622 6.26328H4.36512V4.34006H6.62306L6.62622 6.26328ZM9.33622 11.1806H7.07433V9.2581H9.33227L9.33622 11.1806ZM9.33622 8.82856H7.07433V6.69207H9.33227L9.33622 8.82856ZM9.33622 6.26253H7.07433V4.34006H9.33227L9.33622 6.26253ZM9.17816 3.20559C9.15638 3.18686 9.13885 3.16413 9.12662 3.13879C9.11439 3.11345 9.10773 3.08602 9.10703 3.05817V1.13346C9.10765 1.07688 9.13166 1.02278 9.17391 0.982766C9.21617 0.942755 9.27331 0.920018 9.33306 0.919434H9.78433C9.84409 0.920018 9.90122 0.942755 9.94348 0.982766C9.98574 1.02278 10.0097 1.07688 10.0104 1.13346V3.05817C10.0097 3.11475 9.98574 3.16885 9.94348 3.20886C9.90122 3.24887 9.84409 3.27161 9.78433 3.27219H9.33306C9.3032 3.27247 9.27361 3.26689 9.24614 3.25582C9.21866 3.24474 9.1939 3.2284 9.17342 3.20783L9.17816 3.20559ZM11.821 11.1798H9.78433V9.2581H11.8162L11.821 11.1798ZM11.821 8.82781H9.78433V6.69207H11.8162L11.821 8.82781ZM11.821 6.26178H9.78433V4.34006H11.8162L11.821 6.26178Z" fill="#333333"/>
</svg>
