<svg width="25" height="21" viewBox="0 0 25 21" fill="none" xmlns="http://www.w3.org/2000/svg">
<g clip-path="url(#clip0_1_191)">
<path d="M23.2563 8.75161L13.7824 8.75121C13.364 8.75121 13.0249 9.05055 13.0249 9.4199V12.0919C13.0249 12.4612 13.364 12.7606 13.7823 12.7606H19.1174C18.5332 14.0992 17.4429 15.2202 16.0517 15.9324L18.3266 19.4092C21.9758 17.5459 24.1333 14.2766 24.1333 10.6168C24.1333 10.0957 24.0898 9.72317 24.0027 9.30371C23.9366 8.98502 23.6232 8.75161 23.2563 8.75161Z" fill="#167EE6"/>
<path d="M12.52 16.7753C9.90914 16.7753 7.62984 15.5159 6.40568 13.6522L2.46777 15.6561C4.47175 18.7225 8.22584 20.7874 12.52 20.7874C14.6266 20.7874 16.6144 20.2867 18.3267 19.414V19.4092L16.0518 15.9324C15.0112 16.4652 13.8071 16.7753 12.52 16.7753Z" fill="#12B347"/>
<path d="M18.3264 19.414V19.4092L16.0515 15.9324C15.011 16.4652 13.8069 16.7754 12.5198 16.7754V20.7874C14.6264 20.7874 16.6142 20.2867 18.3264 19.414Z" fill="#0F993E"/>
<path d="M5.45084 10.5343C5.45084 9.39811 5.80205 8.33511 6.40544 7.41646L2.46753 5.41254C1.47364 6.91954 0.906494 8.6697 0.906494 10.5343C0.906494 12.399 1.47364 14.1491 2.46753 15.6561L6.40544 13.6522C5.80205 12.7335 5.45084 11.6705 5.45084 10.5343Z" fill="#FFD500"/>
<path d="M12.52 4.29331C14.2226 4.29331 15.7865 4.82743 17.008 5.71589C17.3094 5.93505 17.7474 5.91923 18.0234 5.67552L20.1678 3.7823C20.481 3.50578 20.4587 3.05316 20.1241 2.79692C18.0775 1.22935 15.4146 0.281219 12.52 0.281219C8.22584 0.281219 4.47175 2.34614 2.46777 5.41254L6.40568 7.41646C7.62984 5.55276 9.90914 4.29331 12.52 4.29331Z" fill="#FF4B26"/>
<path d="M17.0078 5.71589C17.3091 5.93505 17.7472 5.91923 18.0232 5.67552L20.1676 3.7823C20.4807 3.50578 20.4584 3.05316 20.1239 2.79692C18.0772 1.22931 15.4143 0.281219 12.5198 0.281219V4.29331C14.2223 4.29331 15.7862 4.82743 17.0078 5.71589Z" fill="#D93F21"/>
</g>
<defs>
<clipPath id="clip0_1_191">
<rect width="23.2266" height="20.5062" fill="white" transform="translate(0.906494 0.281219)"/>
</clipPath>
</defs>
</svg>
