<svg width="15" height="16" viewBox="0 0 15 16" fill="none" xmlns="http://www.w3.org/2000/svg">
<path d="M2.46753 3.14049C3.79949 1.78189 5.40438 1.1026 7.28222 1.1026C9.16005 1.1026 10.7649 1.78189 12.0969 3.14049C13.4289 4.49908 14.0948 6.13607 14.0948 8.05146C14.0948 9.96686 13.4289 11.6038 12.0969 12.9624C10.7649 14.321 9.16005 15.0003 7.28222 15.0003C5.40438 15.0003 3.79949 14.321 2.46753 12.9624C1.13558 11.6038 0.469604 9.96686 0.469604 8.05146C0.469604 6.13607 1.13558 4.49908 2.46753 3.14049ZM2.86057 12.5615C4.08335 13.8088 5.55723 14.4324 7.28222 14.4324C9.00721 14.4324 10.4811 13.8088 11.7039 12.5615C12.9266 11.3143 13.538 9.81095 13.538 8.05146C13.538 6.29198 12.9266 4.78862 11.7039 3.54138C10.4811 2.29415 9.00721 1.67053 7.28222 1.67053C5.55723 1.67053 4.08335 2.29415 2.86057 3.54138C1.63779 4.78862 1.0264 6.29198 1.0264 8.05146C1.0264 9.81095 1.63779 11.3143 2.86057 12.5615ZM7.28222 8.05146V3.77524H7.83902V8.6194H4.13793V8.05146H7.28222Z" fill="#333333"/>
<path fill-rule="evenodd" clip-rule="evenodd" d="M7.28222 1.35756C5.47092 1.35756 3.92954 2.00983 2.64431 3.32076C1.35908 4.6317 0.719604 6.2039 0.719604 8.05143C0.719604 9.89896 1.35908 11.4712 2.64431 12.7821C3.92954 14.093 5.47092 14.7453 7.28222 14.7453C9.09352 14.7453 10.6349 14.093 11.9201 12.7821C13.2054 11.4712 13.8448 9.89896 13.8448 8.05143C13.8448 6.2039 13.2054 4.6317 11.9201 3.32076C10.6349 2.00983 9.09352 1.35756 7.28222 1.35756ZM2.29076 2.96014C3.66943 1.55389 5.33785 0.847565 7.28222 0.847565C9.22659 0.847565 10.895 1.55389 12.2737 2.96014C13.6524 4.36639 14.3448 6.06817 14.3448 8.05143C14.3448 10.0347 13.6524 11.7365 12.2737 13.1427C10.895 14.549 9.22659 15.2553 7.28222 15.2553C5.33785 15.2553 3.66943 14.549 2.29076 13.1427C0.912084 11.7365 0.219604 10.0347 0.219604 8.05143C0.219604 6.06817 0.912084 4.36639 2.29076 2.96014ZM2.68379 3.36104C3.95332 2.06612 5.49074 1.4155 7.28222 1.4155C9.0737 1.4155 10.6111 2.06612 11.8806 3.36104C13.1502 4.65596 13.788 6.22412 13.788 8.05143C13.788 9.87874 13.1502 11.4469 11.8806 12.7418C10.6111 14.0367 9.0737 14.6874 7.28222 14.6874C5.49074 14.6874 3.95332 14.0367 2.68379 12.7418C1.41426 11.4469 0.776405 9.87874 0.776405 8.05143C0.776405 6.22412 1.41426 4.65596 2.68379 3.36104ZM7.28222 1.9255C5.62372 1.9255 4.21337 2.52212 3.03735 3.72166C1.86132 4.9212 1.2764 6.35976 1.2764 8.05143C1.2764 9.7431 1.86132 11.1817 3.03735 12.3812C4.21337 13.5807 5.62372 14.1774 7.28222 14.1774C8.94072 14.1774 10.3511 13.5807 11.5271 12.3812C12.7031 11.1817 13.288 9.7431 13.288 8.05143C13.288 6.35976 12.7031 4.9212 11.5271 3.72166C10.3511 2.52212 8.94072 1.9255 7.28222 1.9255ZM7.03222 3.5202H8.08902V8.87437H3.88793V7.79643H7.03222V3.5202ZM7.53222 4.0302V8.30643H4.38793V8.36437H7.58902V4.0302H7.53222Z" fill="#333333"/>
</svg>
