<svg width="15" height="16" viewBox="0 0 15 16" fill="none" xmlns="http://www.w3.org/2000/svg">
<path d="M2.62818 3.14049C3.96013 1.78189 5.56503 1.1026 7.44286 1.1026C9.3207 1.1026 10.9256 1.78189 12.2575 3.14049C13.5895 4.49908 14.2555 6.13607 14.2555 8.05146C14.2555 9.96686 13.5895 11.6038 12.2575 12.9624C10.9256 14.321 9.3207 15.0003 7.44286 15.0003C5.56503 15.0003 3.96013 14.321 2.62818 12.9624C1.29623 11.6038 0.630249 9.96686 0.630249 8.05146C0.630249 6.13607 1.29623 4.49908 2.62818 3.14049ZM3.02121 12.5615C4.24399 13.8088 5.71787 14.4324 7.44286 14.4324C9.16785 14.4324 10.6417 13.8088 11.8645 12.5615C13.0873 11.3143 13.6987 9.81095 13.6987 8.05146C13.6987 6.29198 13.0873 4.78862 11.8645 3.54138C10.6417 2.29415 9.16785 1.67053 7.44286 1.67053C5.71787 1.67053 4.24399 2.29415 3.02121 3.54138C1.79844 4.78862 1.18705 6.29198 1.18705 8.05146C1.18705 9.81095 1.79844 11.3143 3.02121 12.5615ZM7.44286 8.05146V3.77524H7.99966V8.6194H4.29858V8.05146H7.44286Z" fill="#333333"/>
<path fill-rule="evenodd" clip-rule="evenodd" d="M7.44286 1.35756C5.63156 1.35756 4.09019 2.00983 2.80496 3.32076C1.51972 4.6317 0.880249 6.2039 0.880249 8.05143C0.880249 9.89896 1.51972 11.4712 2.80496 12.7821C4.09019 14.093 5.63156 14.7453 7.44286 14.7453C9.25416 14.7453 10.7955 14.093 12.0808 12.7821C13.366 11.4712 14.0055 9.89896 14.0055 8.05143C14.0055 6.2039 13.366 4.6317 12.0808 3.32076C10.7955 2.00983 9.25416 1.35756 7.44286 1.35756ZM2.4514 2.96014C3.83008 1.55389 5.49849 0.847565 7.44286 0.847565C9.38723 0.847565 11.0556 1.55389 12.4343 2.96014C13.813 4.36639 14.5055 6.06817 14.5055 8.05143C14.5055 10.0347 13.813 11.7365 12.4343 13.1427C11.0556 14.549 9.38723 15.2553 7.44286 15.2553C5.49849 15.2553 3.83008 14.549 2.4514 13.1427C1.07273 11.7365 0.380249 10.0347 0.380249 8.05143C0.380249 6.06817 1.07273 4.36639 2.4514 2.96014ZM2.84444 3.36104C4.11397 2.06612 5.65138 1.4155 7.44286 1.4155C9.23434 1.4155 10.7718 2.06612 12.0413 3.36104C13.3108 4.65596 13.9487 6.22412 13.9487 8.05143C13.9487 9.87874 13.3108 11.4469 12.0413 12.7418C10.7718 14.0367 9.23434 14.6874 7.44286 14.6874C5.65138 14.6874 4.11397 14.0367 2.84444 12.7418C1.57491 11.4469 0.937049 9.87874 0.937049 8.05143C0.937049 6.22412 1.57491 4.65596 2.84444 3.36104ZM7.44286 1.9255C5.78436 1.9255 4.37401 2.52212 3.19799 3.72166C2.02197 4.9212 1.43705 6.35976 1.43705 8.05143C1.43705 9.7431 2.02197 11.1817 3.19799 12.3812C4.37401 13.5807 5.78436 14.1774 7.44286 14.1774C9.10136 14.1774 10.5117 13.5807 11.6877 12.3812C12.8638 11.1817 13.4487 9.7431 13.4487 8.05143C13.4487 6.35976 12.8638 4.9212 11.6877 3.72166C10.5117 2.52212 9.10136 1.9255 7.44286 1.9255ZM7.19286 3.5202H8.24966V8.87437H4.04858V7.79643H7.19286V3.5202ZM7.69286 4.0302V8.30643H4.54858V8.36437H7.74966V4.0302H7.69286Z" fill="#333333"/>
</svg>
